<svg width="100" height="54" viewBox="0 0 100 54" fill="none" xmlns="http://www.w3.org/2000/svg">
<path d="M17.9916 18.4426C19.5661 18.4426 20.8425 17.1657 20.8425 15.5905C20.8425 14.0152 19.5661 12.7383 17.9916 12.7383C16.417 12.7383 15.1406 14.0152 15.1406 15.5905C15.1406 17.1657 16.417 18.4426 17.9916 18.4426Z" fill="#F8F5EC"/>
<path d="M33.9861 15.5909C33.9861 13.3509 31.3577 11.403 27.269 10.2344C28.2981 6.10218 27.9365 2.84653 25.9896 1.73348C24.0426 0.606527 21.0526 1.92827 17.993 4.87783C14.9335 1.91435 11.9435 0.606527 9.99652 1.73348C8.38331 2.66566 7.78531 5.03087 8.32768 8.39783C8.42503 8.99609 8.5641 9.60827 8.71708 10.2483C4.62842 11.417 2 13.3648 2 15.6048C2 17.8448 4.62842 19.7787 8.71708 20.9613C8.5641 21.5874 8.42503 22.2135 8.32768 22.8117C7.78531 26.1787 8.38331 28.5439 9.99652 29.4761C10.4694 29.7544 11.0117 29.8935 11.6097 29.8935C13.0282 29.8935 14.7388 29.1144 16.6023 27.5978C17.0613 27.2222 17.5341 26.7909 17.993 26.3457C18.452 26.7909 18.9248 27.2222 19.3837 27.5978C21.2473 29.1144 22.9578 29.8935 24.3764 29.8935C24.9744 29.8935 25.5167 29.7544 25.9896 29.4761C27.6028 28.5439 28.2008 26.1787 27.6723 22.8117C27.575 22.2135 27.4359 21.6013 27.2829 20.9613C31.3716 19.7926 34 17.8448 34 15.6048L33.9861 15.5909ZM25.2942 2.93001C26.5458 3.65348 26.824 6.29696 25.92 9.88653C24.6128 9.58044 23.1804 9.35783 21.6645 9.2187C20.7884 7.98044 19.8705 6.85348 18.9665 5.86566C21.0804 3.82044 23.0413 2.7074 24.3903 2.7074C24.7379 2.7074 25.0439 2.77696 25.3081 2.93001H25.2942ZM22.4572 18.1648C21.9565 19.0135 21.442 19.8483 20.9135 20.6274C19.9817 20.697 19.0083 20.7387 18.007 20.7387C17.0056 20.7387 16.0322 20.697 15.1004 20.6274C14.5719 19.8483 14.0435 19.0135 13.5567 18.1648C13.0561 17.3022 12.611 16.4535 12.1938 15.5909C12.611 14.7283 13.0561 13.8796 13.5567 13.017C14.0574 12.1404 14.5858 11.3196 15.1004 10.5544C16.0322 10.4848 17.0056 10.443 18.007 10.443C19.0083 10.443 19.9817 10.4848 20.9135 10.5544C21.442 11.3196 21.9565 12.1404 22.4572 13.017C22.9439 13.8657 23.4029 14.7283 23.8201 15.5909C23.4168 16.4396 22.9718 17.2883 22.4572 18.1648ZM24.5432 17.2187C24.9326 18.1509 25.2664 19.0552 25.5445 19.9457C24.6545 20.1404 23.6949 20.3213 22.6797 20.4465C23.0135 19.9317 23.3333 19.403 23.6532 18.8604C23.9731 18.3178 24.2651 17.7613 24.5432 17.2187ZM17.993 24.3144C17.3672 23.6326 16.7414 22.8813 16.1295 22.0744C16.7414 22.1022 17.3533 22.1161 17.993 22.1161C18.6328 22.1161 19.2447 22.1022 19.8566 22.0744C19.2447 22.8813 18.6189 23.6187 17.993 24.3144ZM13.3064 20.4465C12.2912 20.3213 11.3316 20.1544 10.4415 19.9457C10.7197 19.0552 11.0535 18.1509 11.4429 17.2187C11.721 17.7613 12.013 18.3178 12.3329 18.8604C12.6528 19.403 12.9726 19.9317 13.3064 20.4465ZM11.4429 13.9491C11.0535 13.017 10.7197 12.1126 10.4415 11.2222C11.3316 11.0274 12.2912 10.8465 13.3064 10.7213C12.9726 11.2361 12.6528 11.7648 12.3329 12.3074C12.013 12.85 11.721 13.3926 11.4429 13.9491ZM17.993 6.85348C18.605 7.52131 19.2308 8.27261 19.8566 9.09348C19.2447 9.06566 18.6328 9.05174 17.993 9.05174C17.3533 9.05174 16.7414 9.06566 16.1295 9.09348C16.7553 8.27261 17.3672 7.52131 17.993 6.85348ZM23.6532 12.3213C23.3333 11.7787 23.0135 11.25 22.6797 10.7352C23.6949 10.8604 24.6545 11.0274 25.5445 11.2361C25.2803 12.1126 24.9465 13.017 24.5432 13.963C24.2651 13.4204 23.9591 12.8639 23.6532 12.3213ZM9.69057 8.17522C9.25945 5.46218 9.62103 3.55609 10.6919 2.94392C10.9561 2.79087 11.2621 2.72131 11.6097 2.72131C12.9587 2.72131 14.9196 3.83435 17.0335 5.87957C16.1156 6.8674 15.2116 7.99435 14.3355 9.23261C12.8196 9.37174 11.3872 9.59435 10.08 9.90044C9.92699 9.31609 9.80183 8.73174 9.71838 8.18914L9.69057 8.17522ZM3.3907 15.5909C3.3907 14.1439 5.53238 12.5857 9.09257 11.57C9.49587 12.8639 10.0243 14.2135 10.6502 15.5909C10.0243 16.9544 9.49587 18.3039 9.09257 19.6117C5.54628 18.5961 3.3907 17.0517 3.3907 15.5909ZM15.7262 26.4848C13.5984 28.21 11.7627 28.85 10.6919 28.2378C9.62103 27.6257 9.25945 25.7057 9.69057 23.0065C9.77401 22.45 9.91308 21.8796 10.0522 21.2952C11.3594 21.6013 12.7918 21.8239 14.3077 21.963C15.1838 23.1874 16.0878 24.3283 17.0056 25.33C16.5745 25.7474 16.1434 26.1509 15.7123 26.4987L15.7262 26.4848ZM26.2955 23.0065C26.7266 25.7196 26.3651 27.6257 25.2942 28.2378C24.2234 28.85 22.3877 28.21 20.2599 26.4848C19.8288 26.137 19.3977 25.7335 18.9665 25.3161C19.8983 24.3144 20.8023 23.1874 21.6645 21.963C23.1804 21.8239 24.6128 21.6013 25.92 21.2952C26.073 21.8796 26.1982 22.4639 26.2816 23.0065H26.2955ZM26.8935 19.5978C26.4902 18.3039 25.9618 16.9544 25.3359 15.577C25.9757 14.1857 26.4902 12.8361 26.8935 11.5561C30.4537 12.5717 32.5954 14.1161 32.5954 15.577C32.5954 17.0378 30.4537 18.5822 26.8935 19.5978Z" fill="#89BCD9"/>
<path d="M4.17232 38.878C4.68565 38.878 5.15699 38.948 5.58632 39.088C6.02499 39.2187 6.40299 39.4193 6.72032 39.69C7.04699 39.9513 7.29899 40.278 7.47632 40.67C7.66299 41.0527 7.75632 41.5007 7.75632 42.014C7.75632 42.4153 7.69565 42.8073 7.57432 43.19C7.46232 43.5727 7.27099 43.9227 7.00032 44.24C6.72965 44.548 6.37499 44.8 5.93632 44.996C5.50699 45.1827 4.97499 45.276 4.34032 45.276H2.84232V49H1.48432V38.878H4.17232ZM4.31232 43.974C4.71365 43.974 5.04499 43.9133 5.30632 43.792C5.57699 43.6707 5.78699 43.5167 5.93632 43.33C6.08565 43.134 6.19299 42.924 6.25832 42.7C6.32365 42.476 6.35632 42.266 6.35632 42.07C6.35632 41.8647 6.31899 41.6547 6.24432 41.44C6.17899 41.216 6.06699 41.0107 5.90832 40.824C5.75899 40.6373 5.55832 40.4833 5.30632 40.362C5.06365 40.2407 4.76499 40.18 4.41032 40.18H2.84232V43.974H4.31232ZM5.97832 44.744L8.62432 49H7.05632L4.36832 44.786L5.97832 44.744ZM12.9011 49.14C12.2384 49.14 11.6691 49.0093 11.1931 48.748C10.7171 48.4773 10.3484 48.1133 10.0871 47.656C9.8351 47.1893 9.7091 46.6573 9.7091 46.06C9.7091 45.4907 9.85377 44.9727 10.1431 44.506C10.4324 44.0393 10.8198 43.666 11.3051 43.386C11.7904 43.106 12.3318 42.966 12.9291 42.966C13.6944 42.966 14.3291 43.19 14.8331 43.638C15.3371 44.086 15.6778 44.702 15.8551 45.486L11.0811 47.166L10.7731 46.396L14.6931 44.968L14.4131 45.15C14.3011 44.842 14.1144 44.576 13.8531 44.352C13.5918 44.1187 13.2511 44.002 12.8311 44.002C12.4764 44.002 12.1591 44.0907 11.8791 44.268C11.5991 44.436 11.3798 44.6693 11.2211 44.968C11.0624 45.2667 10.9831 45.6073 10.9831 45.99C10.9831 46.3913 11.0671 46.746 11.2351 47.054C11.4031 47.3527 11.6318 47.5907 11.9211 47.768C12.2198 47.936 12.5558 48.02 12.9291 48.02C13.1811 48.02 13.4238 47.9733 13.6571 47.88C13.8998 47.7867 14.1238 47.6653 14.3291 47.516L14.9311 48.482C14.6418 48.678 14.3151 48.8367 13.9511 48.958C13.5964 49.0793 13.2464 49.14 12.9011 49.14ZM19.8945 49.14C19.3532 49.14 18.8585 49.0233 18.4105 48.79C17.9719 48.5567 17.6219 48.216 17.3605 47.768C17.1085 47.3107 16.9825 46.7553 16.9825 46.102C16.9825 45.458 17.1179 44.9027 17.3885 44.436C17.6592 43.96 18.0185 43.596 18.4665 43.344C18.9239 43.092 19.4232 42.966 19.9645 42.966C20.5059 42.966 20.9632 43.092 21.3365 43.344C21.7099 43.5867 21.9945 43.876 22.1905 44.212L22.1065 44.436L22.2325 43.204H23.4365V49H22.1345V47.488L22.2745 47.824C22.2372 47.9173 22.1532 48.0387 22.0225 48.188C21.9012 48.328 21.7332 48.4727 21.5185 48.622C21.3132 48.7713 21.0752 48.8973 20.8045 49C20.5339 49.0933 20.2305 49.14 19.8945 49.14ZM20.2445 48.062C20.5712 48.062 20.8652 48.0013 21.1265 47.88C21.3879 47.7587 21.6025 47.5907 21.7705 47.376C21.9479 47.152 22.0692 46.886 22.1345 46.578V45.444C22.0599 45.164 21.9292 44.9213 21.7425 44.716C21.5559 44.5013 21.3319 44.338 21.0705 44.226C20.8092 44.1047 20.5199 44.044 20.2025 44.044C19.8572 44.044 19.5399 44.128 19.2505 44.296C18.9612 44.464 18.7279 44.6973 18.5505 44.996C18.3825 45.2947 18.2985 45.6447 18.2985 46.046C18.2985 46.4193 18.3872 46.76 18.5645 47.068C18.7419 47.376 18.9799 47.6187 19.2785 47.796C19.5772 47.9733 19.8992 48.062 20.2445 48.062ZM30.3937 48.468C30.1323 48.6733 29.8197 48.8367 29.4557 48.958C29.0917 49.0793 28.7277 49.14 28.3637 49.14C27.729 49.14 27.1737 49.014 26.6977 48.762C26.2217 48.51 25.8483 48.16 25.5777 47.712C25.3163 47.2547 25.1857 46.718 25.1857 46.102C25.1857 45.486 25.3257 44.9493 25.6057 44.492C25.895 44.0347 26.2683 43.6847 26.7257 43.442C27.1923 43.19 27.6917 43.064 28.2237 43.064C28.6903 43.064 29.1057 43.1293 29.4697 43.26C29.843 43.3907 30.1603 43.568 30.4217 43.792L29.7777 44.632C29.6097 44.5013 29.4043 44.3847 29.1617 44.282C28.919 44.1793 28.6437 44.128 28.3357 44.128C27.9997 44.128 27.687 44.2167 27.3977 44.394C27.1177 44.562 26.8937 44.7953 26.7257 45.094C26.567 45.3927 26.4877 45.7287 26.4877 46.102C26.4877 46.4567 26.5717 46.788 26.7397 47.096C26.9077 47.3947 27.141 47.6327 27.4397 47.81C27.7383 47.978 28.079 48.062 28.4617 48.062C28.7137 48.062 28.9423 48.0247 29.1477 47.95C29.3623 47.8753 29.5537 47.7727 29.7217 47.642L30.3937 48.468ZM32.6344 40.656H33.9364V43.232H35.5324V44.254H33.9364V49H32.6344V44.254H31.5704V43.232H32.6344V40.656Z" fill="#F8F5EC"/>
<path d="M83.6951 2.66797L80.0006 9.06797L76.3049 2.66797H64L80.0006 30.3817L96 2.66797H83.6951Z" fill="#89BCD9"/>
<path d="M83.6936 2.66797L79.999 9.06797L76.3033 2.66797H70.3984L79.999 19.2957L89.5984 2.66797H83.6936Z" fill="#F8F5EC"/>
<path d="M62.6537 38.878L65.9857 47.25L65.2157 47.096L68.3797 38.878H69.9617L65.4957 49.462L61.0437 38.878H62.6537ZM72.3381 49.224C71.8155 49.224 71.3815 49.0653 71.0361 48.748C70.7001 48.4213 70.5228 48.0013 70.5041 47.488V43.204H71.8061V47.026C71.8248 47.3433 71.9135 47.6 72.0721 47.796C72.2401 47.992 72.5015 48.0947 72.8561 48.104C73.1828 48.104 73.4721 48.0107 73.7241 47.824C73.9855 47.628 74.1955 47.3667 74.3541 47.04C74.5128 46.704 74.5921 46.326 74.5921 45.906V43.204H75.8941V49H74.7041L74.5921 47.572L74.6621 47.824C74.5501 48.0947 74.3775 48.3373 74.1441 48.552C73.9201 48.7573 73.6541 48.9207 73.3461 49.042C73.0381 49.1633 72.7021 49.224 72.3381 49.224ZM80.8347 49.14C80.172 49.14 79.6027 49.0093 79.1267 48.748C78.6507 48.4773 78.282 48.1133 78.0207 47.656C77.7687 47.1893 77.6427 46.6573 77.6427 46.06C77.6427 45.4907 77.7874 44.9727 78.0767 44.506C78.366 44.0393 78.7534 43.666 79.2387 43.386C79.724 43.106 80.2654 42.966 80.8627 42.966C81.628 42.966 82.2627 43.19 82.7667 43.638C83.2707 44.086 83.6114 44.702 83.7887 45.486L79.0147 47.166L78.7067 46.396L82.6267 44.968L82.3467 45.15C82.2347 44.842 82.048 44.576 81.7867 44.352C81.5254 44.1187 81.1847 44.002 80.7647 44.002C80.41 44.002 80.0927 44.0907 79.8127 44.268C79.5327 44.436 79.3134 44.6693 79.1547 44.968C78.996 45.2667 78.9167 45.6073 78.9167 45.99C78.9167 46.3913 79.0007 46.746 79.1687 47.054C79.3367 47.3527 79.5654 47.5907 79.8547 47.768C80.1534 47.936 80.4894 48.02 80.8627 48.02C81.1147 48.02 81.3574 47.9733 81.5907 47.88C81.8334 47.7867 82.0574 47.6653 82.2627 47.516L82.8647 48.482C82.5754 48.678 82.2487 48.8367 81.8847 48.958C81.53 49.0793 81.18 49.14 80.8347 49.14ZM92.3698 47.166C92.3698 47.9873 92.2112 48.6873 91.8938 49.266C91.5858 49.8447 91.1612 50.2833 90.6198 50.582C90.0785 50.89 89.4578 51.058 88.7578 51.086V49.77C89.4112 49.7327 89.9478 49.4993 90.3678 49.07C90.7972 48.65 91.0118 48.0013 91.0118 47.124V38.878H92.3698V47.166ZM96.5871 49.112C96.1764 49.112 95.7751 49.042 95.3831 48.902C95.0004 48.7527 94.6831 48.5333 94.4311 48.244L94.9771 47.488C95.2198 47.7213 95.4671 47.8987 95.7191 48.02C95.9804 48.132 96.2371 48.188 96.4891 48.188C96.6758 48.188 96.8484 48.1647 97.0071 48.118C97.1658 48.0713 97.2918 47.9967 97.3851 47.894C97.4878 47.782 97.5391 47.6327 97.5391 47.446C97.5391 47.2407 97.4691 47.0773 97.3291 46.956C97.1984 46.8347 97.0258 46.7367 96.8111 46.662C96.6058 46.5873 96.3864 46.5173 96.1531 46.452C95.6771 46.2933 95.3131 46.074 95.0611 45.794C94.8091 45.514 94.6831 45.1733 94.6831 44.772C94.6831 44.464 94.7578 44.1793 94.9071 43.918C95.0658 43.6473 95.2944 43.428 95.5931 43.26C95.9011 43.092 96.2791 43.008 96.7271 43.008C97.1284 43.008 97.4878 43.0593 97.8051 43.162C98.1224 43.2553 98.4211 43.414 98.7011 43.638L98.1831 44.45C98.0151 44.2727 97.8144 44.142 97.5811 44.058C97.3478 43.974 97.1378 43.9273 96.9511 43.918C96.7924 43.9087 96.6384 43.932 96.4891 43.988C96.3491 44.044 96.2324 44.1233 96.1391 44.226C96.0458 44.3287 95.9991 44.45 95.9991 44.59C95.9991 44.786 96.0644 44.9447 96.1951 45.066C96.3258 45.1873 96.4938 45.2853 96.6991 45.36C96.9138 45.4253 97.1238 45.4953 97.3291 45.57C97.6184 45.654 97.8751 45.766 98.0991 45.906C98.3231 46.046 98.5004 46.2187 98.6311 46.424C98.7711 46.6293 98.8411 46.886 98.8411 47.194C98.8411 47.5393 98.7571 47.8613 98.5891 48.16C98.4304 48.4493 98.1831 48.6827 97.8471 48.86C97.5204 49.028 97.1004 49.112 96.5871 49.112Z" fill="#F8F5EC"/>
</svg>
